# xmcd
#
# Track frame offsets:
#	150
#	15403
#	30502
#	46250
#	62167
#	73220
#	88858
#	98456
#	115241
#	128997
#	142801
#	156192
#	174918
#
# Disc length: 2535 seconds
#
# Revision: 2
# Processed by: cddbd v1.5.2PL0 Copyright (c) Steve Scherf et al.
# Submitted via: EZCDAudioConverter 1.3.4.1
#
DISCID=a209e50d
DTITLE=Thievery Corporation - Saudade
DYEAR=2014
DGENRE=
TTITLE0=Décollage
TTITLE1=Meu Nêgo
TTITLE2=Quem Me Leva
TTITLE3=Firelight
TTITLE4=Sola In Citta
TTITLE5=No More Disguise
TTITLE6=Saudade
TTITLE7=Claridad
TTITLE8=Nós Dois
TTITLE9=Le Coeur
TTITLE10=Para Sempre
TTITLE11=Bateau Rouge
TTITLE12=Depth Of My Soul
EXTD=
EXTT0=
EXTT1=
EXTT2=
EXTT3=
EXTT4=
EXTT5=
EXTT6=
EXTT7=
EXTT8=
EXTT9=
EXTT10=
EXTT11=
EXTT12=
PLAYORDER=
